:SAMPLES-PER-SECOND 30
:FRAME-RANGE 1-564
:FULLY-SPECIFIED
:DEGREES
36
root  86.5223 39.2384 136.229 -23.3544 -78.41 17.8766
RightUpLeg  19.1868 -4.01341 -1.87897
RightLeg  -4.23714 3.87843 -3.48059
RightFoot  -12.2919 -0.0597277 2.84483
RightToes  -1.74624e-010 0 -3.6325e-017
Spine  10.2417 3.62769 8.08286
Spine1  -0.348887 5.93461 -8.37387
HEad  7.60067 -0.878694 -11.7249
LeftShoulder1  3.26192 -3.64045 -39.4623
LeftArm  12.2576 13.5664 -25.6808
LeftForeArm  1.69791 -3.39016 -17.9232
LeftHand  -1.27216 -3.49883 16.7844
RightShoulder  11.0003 9.90945 69.4038
RightArm  19.9196 4.3091 -4.96855
RightForeArm  14.5341 2.44001 16.1026
RightHand  1.58457 20.8338 6.44133
LeftUpLeg  -8.18777 0.330899 0.495939
LeftLeg  14.3537 0.305777 0.694798
LeftFoot  -7.37102 0.0772262 -0.950133
LeftToes  -6.43926e-010 8.38805e-011 -3.16407e-011
37
root  86.0919 39.1946 136.445 -25.4254 -78.7613 20.1215
RightUpLeg  19.9208 -4.0777 -2.53751
RightLeg  -4.63183 4.69465 -3.80565
RightFoot  -12.8451 -0.0462219 3.11255
RightToes  -1.74624e-010 0 -3.6325e-017
Spine  10.791 4.02792 8.25377
Spine1  -0.129408 6.45983 -8.8736
HEad  7.81241 -1.43631 -11.9946
LeftShoulder1  3.23147 -3.49702 -39.935
LeftArm  12.3643 15.232 -24.5347
LeftForeArm  2.38169 -3.48854 -17.8572
LeftHand  -1.34703 -4.51366 15.9949
RightShoulder  10.7581 9.68131 69.1128
RightArm  22.0279 6.46855 -4.18114
RightForeArm  11.5727 4.34107 15.8087
RightHand  1.57313 20.7241 6.42128
LeftUpLeg  -9.40057 -0.122171 -0.00206292
LeftLeg  9.35441 0.30047 1.66142
LeftFoot  -4.34917 0.131648 -1.72687
LeftToes  -6.43926e-010 8.38805e-011 -3.16407e-011
38
root  85.5706 39.1092 136.689 -26.5481 -79.2568 21.4118
RightUpLeg  20.8637 -4.13714 -2.95652
RightLeg  -5.14047 5.26765 -4.08404
RightFoot  -13.3862 -0.0300155 3.40214
RightToes  -1.74624e-010 0 -3.6325e-017
Spine  11.0017 4.26069 8.73846
Spine1  0.381218 6.94327 -9.78877
HEad  8.0959 -1.4796 -11.8689
LeftShoulder1  3.18151 -3.41902 -39.7433
LeftArm  11.7797 17.2858 -23.7906
LeftForeArm  1.93617 -3.44241 -17.8307
LeftHand  -1.26745 -3.50558 16.7118
RightShoulder  12.1264 11.3277 69.2412
RightArm  22.2179 5.6198 -4.18621
RightForeArm  10.2761 6.83255 14.7684
RightHand  1.58505 20.7707 6.46073
LeftUpLeg  -10.5896 0.892598 0.21422
LeftLeg  4.96201 -0.443334 1.6166
LeftFoot  -2.74743 0.169541 -2.03669
LeftToes  -6.43926e-010 8.38805e-011 -3.16407e-011
39
root  84.9462 38.9959 136.985 -28.2014 -79.8444 23.2187
RightUpLeg  21.9726 -4.52794 -3.73964
RightLeg  -5.61115 6.34776 -4.23487
RightFoot  -14.1127 -0.00746245 3.64535
RightToes  -1.74624e-010 0 -3.6325e-017
Spine  10.7227 4.27788 9.16388
Spine1  1.31193 7.26428 -10.8592
HEad  8.04076 -1.16939 -11.4223
LeftShoulder1  3.09733 -3.32512 -39.1719
LeftArm  10.883 19.7621 -23.2953
LeftForeArm  2.26611 -3.56717 -17.6794
LeftHand  -1.2549 -3.50655 16.5492
RightShoulder  13.0317 12.3455 69.5683
RightArm  27.1985 6.07439 -4.12118
RightForeArm  5.37408 10.3499 13.5352
RightHand  1.62245 20.9709 6.56865
LeftUpLeg  -11.4322 0.0398114 0.238246
LeftLeg  1.0501 1.14446 2.44864
LeftFoot  -2.3392 0.171257 -1.99698
LeftToes  -6.43926e-010 8.38805e-011 -3.16407e-011
40
root  84.2232 38.8495 137.305 -30.5122 -80.4396 25.6252
RightUpLeg  23.1257 -5.18278 -4.85015
RightLeg  -5.67296 7.65173 -4.21654
RightFoot  -15.0298 0.0215353 3.83151
RightToes  -1.74624e-010 0 -3.6325e-017
Spine  10.9613 4.73385 8.23075
Spine1  1.26042 7.53363 -10.3371
HEad  8.70067 -1.01626 -11.4336
LeftShoulder1  3.11952 -3.31185 -39.5649
LeftArm  12.1244 21.8497 -22.0306
LeftForeArm  3.0008 -3.72669 -17.6821
LeftHand  -1.44384 -4.09162 17.8389
RightShoulder  13.3048 12.7237 69.4098
RightArm  28.4245 6.69141 -3.77544
RightForeArm  4.03373 11.9908 12.6131
RightHand  1.63212 21.2465 6.53463
LeftUpLeg  -12.01 -0.255496 0.416216
LeftLeg  -2.11014 2.15875 2.68319
LeftFoot  -2.28133 0.136243 -1.54649
LeftToes  -6.43926e-010 8.38805e-011 -3.16407e-011
41
root  83.422 38.695 137.679 -33.9376 -81.2627 29.3395
RightUpLeg  23.8191 -5.20856 -5.57869
RightLeg  -5.14662 8.65325 -4.77523
RightFoot  -16.094 0.0711681 4.34212
RightToes  -1.74624e-010 0 -3.6325e-017
Spine  10.8671 5.04636 7.99165
Spine1  1.3843 7.9509 -10.9501
HEad  9.24882 -0.660037 -10.91
LeftShoulder1  3.12904 -3.35292 -39.4371
LeftArm  12.9109 23.531 -20.9365
LeftForeArm  1.55036 -3.52486 -17.8731
LeftHand  -1.20513 -4.16202 14.8624
RightShoulder  13.6551 13.0893 69.6232
RightArm  35.4929 6.80323 -3.86945
RightForeArm  -3.64178 15.939 10.3803
RightHand  1.56322 20.7332 6.37533
LeftUpLeg  -12.3506 -0.353777 0.654474
LeftLeg  -4.66064 2.96498 2.67922
LeftFoot  -2.40566 0.124575 -1.40915
LeftToes  -6.43926e-010 8.38805e-011 -3.16407e-011
